<?xml version="1.0" encoding="utf-8"?>
<!-- Generator: Adobe Illustrator 14.0.0, SVG Export Plug-In . SVG Version: 6.00 Build 43363)  -->
<!DOCTYPE svg PUBLIC "-//W3C//DTD SVG 1.1//EN" "http://www.w3.org/Graphics/SVG/1.1/DTD/svg11.dtd">
<svg version="1.1" xmlns="http://www.w3.org/2000/svg" xmlns:xlink="http://www.w3.org/1999/xlink" x="0px" y="0px" width="100px"
	 height="100px" viewBox="0 0 100 100" enable-background="new 0 0 100 100" xml:space="preserve">
<g id="Layer_1">
	<g id="Layer_1_1_">
		<circle fill="#D12529" cx="50.125" cy="50" r="50"/>
	</g>
</g>
<g id="Layer_2">
	<rect x="38.041" y="15.167" fill="#FFFFFF" width="24.167" height="69.667"/>
	<path fill="none" stroke="#FFFFFF" stroke-width="2" d="M36.333,38.525H25c-2.761,0-5-2.451-5-5.475V15.167"/>
	<path fill="none" stroke="#FFFFFF" stroke-width="2" d="M63.835,38.525h11.332c2.762,0,5-2.452,5-5.475V15.167"/>
	<path fill="none" stroke="#FFFFFF" stroke-width="2" d="M36.332,61.476H25c-2.762,0-5,2.452-5,5.476v17.883"/>
	<path fill="none" stroke="#FFFFFF" stroke-width="2" d="M63.835,61.475h11.332c2.762,0,5,2.453,5,5.477v17.883"/>
	<line fill="none" stroke="#FFFFFF" stroke-width="2" x1="3.167" y1="50" x2="36.332" y2="50"/>
	<line fill="none" stroke="#FFFFFF" stroke-width="2" x1="63.584" y1="50.167" x2="96.75" y2="50.167"/>
	<rect x="40.5" y="18" fill="#D12529" width="18.5" height="10.5"/>
	<rect x="40.5" y="71.5" fill="#D12529" width="18.5" height="10.5"/>
	<rect x="40.75" y="44.75" fill="#D12529" width="18.5" height="10.5"/>
	<rect x="40.5" y="29.667" fill="#D12529" width="18.5" height="3.5"/>
	<rect x="40.5" y="66.709" fill="#D12529" width="18.5" height="3.5"/>
</g>
</svg>
