<?xml version="1.0" encoding="utf-8"?>
<!-- Generator: Adobe Illustrator 14.0.0, SVG Export Plug-In . SVG Version: 6.00 Build 43363)  -->
<!DOCTYPE svg PUBLIC "-//W3C//DTD SVG 1.1//EN" "http://www.w3.org/Graphics/SVG/1.1/DTD/svg11.dtd">
<svg version="1.1" id="Layer_1" xmlns="http://www.w3.org/2000/svg" xmlns:xlink="http://www.w3.org/1999/xlink" x="0px" y="0px"
	 width="413px" height="114px" viewBox="0 0 413 114" enable-background="new 0 0 413 114" xml:space="preserve">
<g>
	<path d="M165.569,50.269h-7.061c-0.317,0.483-4.672,7.855-13.066,22.115v0.104h8.2c0.152-0.206,2.955-4.941,8.407-14.204
		c0.028,0,0.338,0.495,0.932,1.489c4.845,8.283,7.365,12.521,7.557,12.715h8.158v-0.043c-0.235-0.428-3.154-5.396-8.758-14.906
		C167.163,52.816,165.707,50.394,165.569,50.269z"/>
	<path d="M233.486,50.269h-7.062c-0.317,0.483-4.673,7.855-13.065,22.115v0.104h8.199c0.151-0.206,2.955-4.941,8.406-14.204
		c0.027,0,0.338,0.495,0.932,1.489c4.847,8.283,7.364,12.521,7.56,12.715h8.158v-0.043c-0.235-0.428-3.154-5.396-8.761-14.906
		C235.08,52.816,233.624,50.394,233.486,50.269z"/>
	<path d="M281.939,50.269h-7.125c-0.025,0-3.174,3.664-9.44,10.997l-9.481-10.997h-7.104c-0.055,0-0.09,0.035-0.104,0.104v22.011
		c0,0.068,0.033,0.104,0.104,0.104h6.896c0.067,0,0.104-0.035,0.104-0.104V59.275c6.309,7.33,9.488,11.002,9.545,11.018h0.104
		l9.483-11.018v13.107c0,0.068,0.035,0.104,0.104,0.104h6.916c0.056,0,0.082-0.034,0.082-0.104v-22.01
		C282.021,50.318,281.995,50.283,281.939,50.269z"/>
	<g>
		<path d="M313.517,53.147c-1.56-1.918-3.583-2.878-6.065-2.878h-16.503c-0.679,0-1.566,0.187-2.671,0.559
			c-2.789,1.311-4.185,3.147-4.185,5.509v10.146c0,1.063,0.347,2.084,1.035,3.064c1.603,1.961,3.61,2.939,6.026,2.939h16.296
			c1.187,0,2.313-0.247,3.375-0.743c2.525-1.3,3.789-3.071,3.789-5.323V56.379C314.614,55.246,314.248,54.168,313.517,53.147z
			 M307.491,63.646c0,0.412-0.048,0.744-0.146,0.992c-0.648,1.727-1.787,2.588-3.416,2.588h-9.109c-0.293,0-0.567-0.033-0.83-0.103
			c-1.861-0.593-2.795-1.788-2.795-3.583v-4.369c0-0.357,0.048-0.712,0.145-1.057c0.648-1.711,1.809-2.566,3.48-2.566h8.695
			c0.385,0,0.834,0.028,1.346,0.083c1.752,0.634,2.63,1.897,2.63,3.789V63.646z"/>
	</g>
	<path d="M379.649,50.275h-6.831c-0.083,0-0.149,0.067-0.149,0.149v12.848l-16.297-12.934l-0.042-0.034
		c-0.022-0.013-0.044-0.029-0.071-0.029h-6.832c-0.082,0-0.149,0.067-0.149,0.149v3.388v18.521c0,0.082,0.067,0.149,0.149,0.149
		h6.832c0.083,0,0.15-0.067,0.15-0.149V59.471l16.287,12.926l0.091,0.07c0.011,0.004,0.018,0.016,0.031,0.016h4.986h1.845
		c0.083,0,0.148-0.066,0.148-0.148v-2.361v-1.041V50.424C379.799,50.342,379.732,50.275,379.649,50.275z"/>
	<path d="M347.104,50.269h-6.915c-0.057,0-0.091,0.035-0.104,0.104v16.855h-12.672c-0.332,0-0.69-0.055-1.076-0.166
		c-1.698-0.593-2.548-1.862-2.548-3.811V50.373c0-0.055-0.035-0.089-0.103-0.104h-6.896c-0.055,0-0.09,0.035-0.104,0.104v16.109
		c0,1.229,0.45,2.389,1.349,3.479c1.587,1.685,3.388,2.524,5.403,2.524h23.668c0.068,0,0.104-0.034,0.104-0.104v-22.01
		C347.207,50.318,347.173,50.283,347.104,50.269z"/>
	<path d="M412.288,50.269h-30.313c-0.057,0-0.092,0.035-0.104,0.104v5.073c0,0.068,0.035,0.105,0.104,0.105h11.615v16.833
		c0,0.068,0.034,0.104,0.104,0.104h6.916c0.067,0,0.104-0.035,0.104-0.104V55.55h11.575c0.068,0,0.104-0.037,0.104-0.105v-5.073
		C412.392,50.318,412.356,50.283,412.288,50.269z"/>
	<path d="M149.233,60.354v-4.122c0-0.938-0.331-1.932-0.994-2.98c-1.615-1.988-3.638-2.982-6.067-2.982h-0.133h-6.914h-16.31
		c-0.056,0-0.09,0.035-0.104,0.104v22.011c0,0.068,0.035,0.104,0.104,0.104h6.896c0.069,0,0.103-0.035,0.103-0.104v-1.337V66.38
		V61.1v-5.55h6.264h6.913h0.386c0.359,0,0.711,0.048,1.057,0.144c1.118,0.442,1.677,1.333,1.677,2.671
		c0,0.277-0.028,0.56-0.083,0.85c-0.387,1.258-1.297,1.885-2.733,1.885h-3.507h-6.913l-3.049,5.279h6.913h9.621
		c1.201,0,2.416-0.318,3.645-0.952C148.156,64.046,149.233,62.354,149.233,60.354z"/>
	<path d="M211.289,60.354v-4.017c0-1.299-0.484-2.506-1.448-3.624c-1.591-1.63-3.446-2.444-5.571-2.444h-23.398
		c-0.056,0-0.09,0.035-0.104,0.104v22.011c0,0.068,0.035,0.104,0.104,0.104h6.895c0.069,0,0.104-0.035,0.104-0.104v-6.005h0.007
		V61.1h-0.007v-5.55h13.563c0.359,0,0.712,0.048,1.056,0.144c1.118,0.442,1.676,1.333,1.676,2.671c0,0.277-0.027,0.56-0.082,0.85
		c-0.168,0.545-0.441,0.963-0.806,1.271c-0.477,0.404-1.114,0.611-1.928,0.611h-2.725h-3.548c2.102,3.17,3.285,4.92,3.548,5.252
		v0.028h0.023c0.002,0.003,0.007,0.009,0.009,0.013h0.009c2.534,3.828,3.905,5.861,4.113,6.096h8.407l0.104-0.041l-4.328-6.522
		l0.892-0.392C210.145,64.163,211.289,62.438,211.289,60.354z"/>
</g>
<g>
	<path d="M51.936,20.668c0.38-3.738-2.333-9.181-7.108-13.505c-4.012-3.634-8.833-5.891-12.58-5.891c-1.27,0-3.027,0.27-4.194,1.56
		c-0.995,1.098-1.334,2.683-1.112,4.514c0.396,0.042,0.792,0.088,1.188,0.141c5.459,0.726,10.485,2.339,14.151,4.545
		c3.037,1.829,4.896,3.928,5.415,6.06c0.113-0.007,0.226-0.013,0.335-0.014C49.014,18.068,50.647,19.425,51.936,20.668z"/>
	<path d="M41.196,13.834c-3.424-2.061-8.162-3.574-13.341-4.261c-0.141-0.019-0.281-0.035-0.421-0.052
		c-0.383-0.047-0.765-0.09-1.146-0.127c-0.378-0.037-0.755-0.069-1.132-0.096c-1.023-0.074-2.038-0.112-3.035-0.112
		c-7.775,0-13.727,2.312-14.149,5.497c-0.215,1.619,1.028,3.46,3.443,5.156c1.653-0.592,3.419-1.099,5.272-1.501
		c2.876-0.624,5.722-0.94,8.46-0.94c1.648,0,3.195,0.114,4.624,0.327c0.58,0.088,1.141,0.19,1.681,0.31
		c0.716,0.159,1.393,0.349,2.033,0.565c2.413,0.813,4.263,2.018,5.404,3.538c2.271-1.668,4.657-2.989,6.733-3.631
		C45.207,16.966,43.664,15.32,41.196,13.834z"/>
	<path d="M37.222,23.441c-0.938-1.249-2.601-2.262-4.789-2.947c-2.034-0.638-4.517-0.994-7.285-0.994
		c-2.589,0-5.285,0.301-8.014,0.894c-1.143,0.247-2.255,0.542-3.328,0.874c-0.465,0.143-0.922,0.295-1.371,0.453
		c-0.43,0.151-0.853,0.308-1.267,0.472c-7.141,2.811-11.899,7.321-11.075,11.11c0.479,2.211,2.91,3.941,6.521,4.857
		c0.788-0.833,1.622-1.649,2.498-2.436c5.755-5.175,12.323-8.371,17.769-8.685c0.295-0.017,0.587-0.028,0.875-0.028
		c0.894,0,1.737,0.087,2.52,0.257c0.86,0.187,1.648,0.476,2.357,0.859C33.878,26.51,35.48,24.892,37.222,23.441z"/>
	<path d="M30.042,33.647c0.08-1.152,0.584-2.441,1.386-3.772c-1.012-0.499-2.251-0.759-3.674-0.759
		c-5.026,0-11.63,3.132-17.237,8.173c-0.489,0.44-0.964,0.89-1.425,1.345c-0.311,0.308-0.615,0.618-0.913,0.931
		c-0.291,0.307-0.574,0.617-0.851,0.928c-2.652,2.98-4.671,6.173-5.82,9.261c-1.489,4.001-1.331,7.293,0.446,9.27
		c1.14,1.268,2.94,1.942,5.206,1.957c0.834-2.072,1.832-4.143,2.984-6.17c3.912-6.899,9.054-12.381,14.251-15.526
		c2.144-1.297,4.296-2.192,6.376-2.626C30.274,35.5,29.986,34.455,30.042,33.647z"/>
	<path d="M31.742,38.615c-6.587,1.097-14.461,7.871-19.769,17.229c-0.924,1.63-1.743,3.283-2.455,4.938
		c-0.162,0.378-0.319,0.755-0.47,1.132c-0.146,0.367-0.289,0.735-0.423,1.104C7.13,67.061,6.306,71.066,6.246,74.73
		c-0.092,5.607,1.616,9.694,4.808,11.504c1.179,0.67,2.532,1.008,4.021,1.008c0.5,0,1.01-0.041,1.527-0.114
		c-0.177-4.657,0.443-9.897,1.822-15.185c1.698-6.516,4.416-12.504,7.654-16.862c3.338-4.494,7.025-6.969,10.38-6.969
		c0.557,0,1.107,0.07,1.639,0.203l0.044-0.57C38.142,47.745,34.12,42.924,31.742,38.615z"/>
	<path d="M37.931,50.458c-0.102-0.035-0.206-0.067-0.311-0.095c-0.375-0.097-0.766-0.146-1.161-0.146
		c-5.718,0-12.745,9.776-15.999,22.258c-1.29,4.946-1.887,9.828-1.766,14.18c0.011,0.365,0.026,0.728,0.046,1.085
		c0.021,0.362,0.047,0.723,0.078,1.077c0.074,0.836,0.173,1.647,0.307,2.431c0.846,4.964,2.856,8.209,5.515,8.901
		c0.374,0.098,0.766,0.147,1.161,0.147c1.486,0,3.061-0.663,4.635-1.858c-1.329-4.648-1.763-10.114-1.231-15.756
		c0.007-0.082,0.012-0.162,0.02-0.242c0.045-0.457,0.098-0.912,0.155-1.364c0.076-0.595,0.164-1.181,0.258-1.767
		c0.916-5.6,2.748-10.74,5.281-14.713c0.97-1.523,2.015-2.83,3.112-3.91c-0.378-1.989-0.521-4.839-0.521-4.839L37.931,50.458z"/>
	<path d="M59.379,18.078c0.172,0.002,0.351,0.012,0.533,0.03c0.531-2.119,2.387-4.205,5.405-6.023
		c3.667-2.207,8.692-3.82,14.151-4.545c0.396-0.052,0.793-0.099,1.188-0.141c0.223-1.831-0.117-3.416-1.111-4.514
		c-1.168-1.289-2.925-1.56-4.194-1.56c-3.748,0-8.567,2.258-12.58,5.89c-4.75,4.302-7.458,9.709-7.113,13.445
		C56.861,19.419,58.397,18.068,59.379,18.078z"/>
	<path d="M74.114,18.652c0.64-0.216,1.316-0.406,2.033-0.565c0.538-0.121,1.1-0.222,1.68-0.31c1.429-0.214,2.976-0.328,4.625-0.328
		c2.738,0,5.583,0.316,8.459,0.94c1.855,0.403,3.619,0.909,5.272,1.501c2.415-1.694,3.659-3.536,3.444-5.155
		c-0.422-3.186-6.374-5.497-14.15-5.497c-0.996,0-2.01,0.038-3.034,0.111c-0.376,0.028-0.753,0.06-1.131,0.097
		c-0.381,0.037-0.763,0.08-1.146,0.127c-0.141,0.018-0.28,0.033-0.421,0.053c-5.179,0.687-9.917,2.2-13.342,4.261
		c-2.472,1.488-4.015,3.137-4.428,4.677c2.076,0.677,4.445,2.01,6.692,3.68C69.804,20.697,71.671,19.475,74.114,18.652z"/>
	<path d="M74.862,28.239c0.735-0.413,1.559-0.721,2.462-0.916c0.783-0.171,1.625-0.258,2.52-0.258c0.288,0,0.581,0.012,0.875,0.028
		c5.446,0.314,12.013,3.509,17.769,8.685c0.876,0.787,1.708,1.603,2.497,2.436c3.61-0.916,6.042-2.645,6.521-4.857
		c0.822-3.79-3.935-8.299-11.076-11.111c-0.414-0.164-0.836-0.32-1.266-0.472c-0.449-0.159-0.906-0.31-1.372-0.453
		c-1.073-0.333-2.186-0.627-3.329-0.875c-2.729-0.592-5.424-0.893-8.013-0.893c-2.77,0-5.252,0.356-7.287,0.994
		c-2.224,0.697-3.909,1.732-4.837,3.011C72.055,25.012,73.637,26.626,74.862,28.239z"/>
	<path d="M76.633,36.671c2.14,0.419,4.36,1.329,6.57,2.666c5.198,3.144,10.34,8.627,14.252,15.525c1.151,2.03,2.149,4.1,2.983,6.171
		c2.267-0.014,4.065-0.689,5.205-1.957c1.777-1.977,1.936-5.267,0.447-9.269c-1.149-3.088-3.168-6.279-5.822-9.261
		c-0.276-0.312-0.559-0.622-0.851-0.928c-0.298-0.313-0.602-0.624-0.913-0.931c-0.46-0.455-0.935-0.905-1.425-1.345
		c-5.605-5.041-12.211-8.173-17.236-8.173c-1.479,0-2.759,0.281-3.794,0.82c0.763,1.291,1.24,2.54,1.318,3.658
		C77.423,34.459,77.133,35.51,76.633,36.671z"/>
	<path d="M69.319,48.417c0.044-0.012,0.085-0.026,0.129-0.037c0.547-0.143,1.117-0.215,1.692-0.215
		c3.355,0,7.042,2.475,10.379,6.969c3.238,4.359,5.958,10.347,7.655,16.86c1.38,5.288,1.998,10.529,1.822,15.188
		c0.517,0.071,1.028,0.112,1.527,0.112c1.489,0,2.843-0.339,4.021-1.007c3.192-1.811,4.9-5.896,4.808-11.506
		c-0.062-3.662-0.884-7.667-2.379-11.711c-0.135-0.365-0.276-0.734-0.424-1.103c-0.15-0.378-0.308-0.755-0.47-1.132
		c-0.711-1.656-1.531-3.311-2.454-4.939c-5.363-9.455-13.343-16.271-19.969-17.261c-2.38,4.304-6.389,9.107-6.389,9.107
		L69.319,48.417z"/>
	<path d="M69.397,60.579c1.16,1.108,2.262,2.469,3.282,4.067c2.533,3.976,4.366,9.115,5.281,14.713
		c0.095,0.584,0.184,1.175,0.258,1.768c0.058,0.453,0.11,0.907,0.156,1.365c0.006,0.08,0.012,0.16,0.02,0.24
		c0.531,5.643,0.098,11.107-1.231,15.757c1.574,1.196,3.148,1.858,4.635,1.858c0.397,0,0.787-0.05,1.162-0.146
		c2.659-0.693,4.668-3.938,5.515-8.902c0.132-0.781,0.232-1.595,0.306-2.431c0.032-0.354,0.058-0.714,0.078-1.076
		c0.022-0.358,0.036-0.719,0.046-1.085c0.122-4.35-0.476-9.232-1.765-14.182c-3.253-12.479-10.282-22.256-15.999-22.256
		c-0.396,0-0.787,0.05-1.162,0.147c-0.167,0.043-0.329,0.101-0.49,0.162l0.411,5.268C69.898,55.846,69.761,58.595,69.397,60.579z"/>
	<path d="M41.298,68.152c-0.063-0.563,0.842-2.104,0.842-2.104s-2.309-1.988-3.315-3.305c-0.737,0.816-1.45,1.758-2.129,2.824
		c-1.846,2.896-3.298,6.468-4.264,10.402c-0.181,0.738-0.345,1.488-0.491,2.252c-0.123,0.639-0.235,1.282-0.331,1.938
		c-0.115,0.767-0.212,1.545-0.29,2.329c-0.502,5.073-0.188,9.987,0.878,14.229c0.098,0.392,0.203,0.774,0.314,1.155
		c0.109,0.376,0.227,0.743,0.349,1.104c0.187,0.557,0.384,1.1,0.6,1.623c1.954,4.743,4.824,7.534,8.082,7.856
		c1.488,0.147,3.002-0.231,4.475-1.091c-1.549-4.143-2.396-9.413-2.396-14.981c0-5.993,0.98-11.643,2.762-15.909
		c0.159-0.38,0.322-0.742,0.49-1.094c-0.315-0.085-0.602-0.18-0.842-0.283C44.106,74.258,41.527,70.242,41.298,68.152z"/>
	<path d="M65.27,66.05c0,0,0.902,1.541,0.842,2.104c-0.229,2.089-2.809,6.104-4.734,6.943c-0.184,0.079-0.396,0.153-0.628,0.225
		c0.18,0.367,0.353,0.753,0.521,1.154c1.781,4.267,2.761,9.916,2.761,15.908c0,5.588-0.854,10.879-2.414,15.026
		c1.45,0.827,2.937,1.19,4.398,1.046c3.258-0.322,6.129-3.113,8.083-7.857c0.215-0.522,0.414-1.065,0.599-1.621
		c0.122-0.36,0.239-0.729,0.348-1.105c0.111-0.379,0.218-0.764,0.316-1.153c1.065-4.241,1.379-9.153,0.876-14.229
		c-0.077-0.784-0.174-1.563-0.289-2.329c-0.097-0.654-0.209-1.299-0.331-1.938c-0.146-0.764-0.31-1.514-0.491-2.252
		c-0.965-3.936-2.417-7.508-4.264-10.402c-0.704-1.106-1.444-2.076-2.21-2.916C67.688,63.966,65.27,66.05,65.27,66.05z"/>
	<path d="M49.022,75.787c-0.241,0.466-0.474,0.966-0.697,1.499c-1.676,4.016-2.599,9.378-2.599,15.099
		c0,5.08,0.729,9.876,2.066,13.699c0.168,0.48,0.345,0.949,0.532,1.398c1.532,3.67,3.538,5.775,5.5,5.775
		c1.965,0,3.97-2.105,5.502-5.775c0.179-0.432,0.348-0.879,0.511-1.338c1.351-3.832,2.088-8.653,2.088-13.761
		c0-5.721-0.923-11.083-2.599-15.099c-0.228-0.544-0.465-1.053-0.71-1.523c-1.736,0.249-3.689,0.346-4.852,0.342
		C52.618,76.104,50.731,76.016,49.022,75.787z"/>
	<path d="M53.554,16.653c0.091,0.001,0.181,0.004,0.272,0.004c0.061,0,0.121-0.002,0.18-0.003c0.626-3.378,2.867-7.433,6.334-10.901
		c0.65-0.651,1.327-1.261,2.019-1.83c-2.085-1.593-5.134-2.599-8.533-2.599c-3.425,0-6.494,1.021-8.58,2.635
		c0.677,0.558,1.338,1.157,1.975,1.793C50.688,9.221,52.929,13.276,53.554,16.653z"/>
	<g>
		<path d="M35.627,31.967c-0.015-1.472,3.518-3.237,4.988-3.135c1.566,0.107,5.63,2.779,5.63,2.779v16.115l-1.058-12.251
			l-6.367-1.583C38.82,33.892,35.635,32.899,35.627,31.967z"/>
		<path d="M71.315,31.967c0.014-1.472-3.52-3.237-4.988-3.135c-1.566,0.107-5.631,2.779-5.631,2.779v16.115l1.058-12.251
			l6.368-1.583C68.122,33.892,71.307,32.899,71.315,31.967z"/>
	</g>
	<path d="M63.292,63.229c0,0-0.154-0.345-0.737,0.143c-0.991,0.832-2.845,1.381-5.17-0.17c0,0-2.079-1.315-3.465-2.452v-4.166
		c1.313-0.518,6.201-2.489,7.681-3.75c0.489-0.418,1.339-1.928,0.908-2.406c-0.769-0.854-2.419,0.71-4.457,1.496
		c-2.101,0.811-4.536,0.855-4.536,0.855h-0.04c0,0-2.477-0.068-4.576-0.878c-2.038-0.786-3.69-2.351-4.458-1.496
		c-0.43,0.478,0.419,1.989,0.908,2.405c1.459,1.244,6.315,3.195,7.731,3.75v4.139c-1.385,1.147-3.528,2.504-3.528,2.504
		c-2.325,1.551-4.18,1.002-5.171,0.17c-0.583-0.486-0.736-0.144-0.736-0.144c-1.256,2.888,0.962,4.25,0.962,4.25
		c0.481,0.375,0.625,0,0.625,0c3.511-4.195,8.231-3.725,8.231-3.725v-0.005c0.001,0,0.004,0,0.005,0v0.005
		c0,0,4.722-0.472,8.232,3.725c0,0,0.144,0.375,0.624,0C62.329,67.479,64.548,66.114,63.292,63.229z"/>
</g>
<g>
	<path d="M194.033,89.811c0,2.383-1.456,4.153-4.253,4.153c-2.813,0-4.269-1.771-4.269-4.153v-6.209h2.227v6.123
		c0,1.242,0.856,2.185,2.042,2.185c1.17,0,2.026-0.941,2.026-2.185v-6.123h2.227V89.811z"/>
	<path d="M198.042,85.57h-2.883V83.6h7.995v1.971h-2.884v8.136h-2.228V85.57z"/>
	<path d="M204.249,83.602h2.227v10.104h-2.227V83.602z"/>
	<path d="M207.588,83.602h2.229v8.051h4.125v2.055h-6.354V83.602z"/>
	<path d="M215.139,83.602h2.228v10.104h-2.228V83.602z"/>
	<path d="M221.346,85.57h-2.882V83.6h7.993v1.971h-2.884v8.136h-2.229L221.346,85.57L221.346,85.57z"/>
	<path d="M231.375,89.396l-3.797-5.795h2.771l2.14,3.782l2.271-3.782h2.641l-3.797,5.795v4.311h-2.228L231.375,89.396
		L231.375,89.396z"/>
	<path d="M248.975,86.227c-0.443-0.527-1.086-0.826-1.914-0.826c-1.685,0-2.927,1.369-2.927,3.254s1.242,3.255,2.854,3.255
		c0.898,0,1.628-0.399,2.086-1.086l1.855,1.386c-0.844,1.198-2.271,1.756-3.654,1.756c-3.155,0-5.453-2.07-5.453-5.311
		s2.298-5.312,5.453-5.312c1.127,0,2.555,0.386,3.41,1.485L248.975,86.227z"/>
	<path d="M257.05,83.343c3.154,0,5.453,2.07,5.453,5.313c0,3.239-2.299,5.31-5.453,5.31c-3.155,0-5.452-2.07-5.452-5.31
		C251.598,85.413,253.895,83.343,257.05,83.343z M257.05,91.908c1.898,0,3.142-1.37,3.142-3.254c0-1.885-1.242-3.256-3.142-3.256
		s-3.141,1.371-3.141,3.256C253.909,90.538,255.15,91.908,257.05,91.908z"/>
	<path d="M263.625,83.602h3.911c2.069,0,3.812,0.713,3.812,3.068c0,1.413-0.757,2.512-2.185,2.77l2.569,4.268h-2.67l-2.112-4.039
		h-1.099v4.039h-2.228L263.625,83.602L263.625,83.602z M265.852,87.783h1.313c0.813,0,1.869-0.029,1.869-1.129
		c0-1.014-0.913-1.17-1.728-1.17h-1.455V87.783L265.852,87.783z"/>
	<path d="M272.873,83.602h3.754c2.098,0,3.84,0.67,3.84,3.068c0,2.368-1.613,3.098-3.738,3.098H275.1v3.938h-2.227V83.602
		L272.873,83.602z M275.1,87.883h1.484c0.785,0,1.57-0.271,1.57-1.213c0-1.042-1.057-1.186-1.913-1.186H275.1V87.883z"/>
	<path d="M286.773,83.343c3.154,0,5.453,2.07,5.453,5.313c0,3.239-2.299,5.31-5.453,5.31s-5.453-2.07-5.453-5.31
		C281.32,85.413,283.619,83.343,286.773,83.343z M286.773,91.908c1.898,0,3.142-1.37,3.142-3.254c0-1.885-1.242-3.256-3.142-3.256
		c-1.898,0-3.142,1.371-3.142,3.256C283.633,90.538,284.875,91.908,286.773,91.908z"/>
	<path d="M293.35,83.602h3.909c2.07,0,3.813,0.713,3.813,3.068c0,1.413-0.758,2.512-2.186,2.77l2.569,4.268h-2.669l-2.112-4.039
		h-1.1v4.039h-2.228V83.602H293.35z M295.575,87.783h1.313c0.813,0,1.869-0.029,1.869-1.129c0-1.014-0.914-1.17-1.727-1.17h-1.457
		L295.575,87.783L295.575,87.783z"/>
	<path d="M306.946,83.602h1.842l4.396,10.104h-2.513l-0.871-2.142h-3.925l-0.843,2.142h-2.455L306.946,83.602z M307.803,86.541
		l-1.228,3.141h2.47L307.803,86.541z"/>
	<path d="M314.405,85.57h-2.883V83.6h7.993v1.971h-2.884v8.136h-2.228L314.405,85.57L314.405,85.57z"/>
	<path d="M320.639,83.602h2.227v10.104h-2.227V83.602z"/>
	<path d="M329.439,83.343c3.154,0,5.453,2.07,5.453,5.313c0,3.239-2.299,5.31-5.453,5.31s-5.452-2.07-5.452-5.31
		C323.987,85.413,326.285,83.343,329.439,83.343z M329.439,91.908c1.897,0,3.142-1.37,3.142-3.254c0-1.885-1.243-3.256-3.142-3.256
		c-1.897,0-3.141,1.371-3.141,3.256C326.3,90.538,327.542,91.908,329.439,91.908z"/>
	<path d="M336.015,83.602h3.026l4.296,7.021h0.029v-7.021h2.228v10.104h-2.912l-4.412-7.192h-0.026v7.192h-2.229V83.602z"/>
</g>
</svg>
