<?xml version="1.0" encoding="utf-8"?>
<!-- Generator: Adobe Illustrator 14.0.0, SVG Export Plug-In . SVG Version: 6.00 Build 43363)  -->
<!DOCTYPE svg PUBLIC "-//W3C//DTD SVG 1.1//EN" "http://www.w3.org/Graphics/SVG/1.1/DTD/svg11.dtd">
<svg version="1.1" id="Layer_1" xmlns="http://www.w3.org/2000/svg" xmlns:xlink="http://www.w3.org/1999/xlink" x="0px" y="0px"
	 width="290px" height="80px" viewBox="0 0 290 80" enable-background="new 0 0 290 80" xml:space="preserve">
<g>
	<g>
		<polygon points="55.486,79.05 24.051,79.05 0.5,0.475 31.918,0.475 		"/>
		<polygon points="102.669,79.05 71.234,79.05 47.684,0.475 79.102,0.475 		"/>
	</g>
	<g>
		<path fill="#FFFFFF" d="M122.473,13.156l3.805-12.681H94.842l-0.012,0.04l3.792,12.644c3.786-1.117,7.788-1.722,11.931-1.722
			C114.692,11.437,118.692,12.041,122.473,13.156z"/>
		<path fill="#FFFFFF" d="M106.875,40.67l3.673,12.248l3.675-12.252c-1.168-0.325-2.398-0.502-3.669-0.502
			C109.279,40.164,108.045,40.343,106.875,40.67z"/>
		<path fill="#FFFFFF" d="M110.553,16.471c-3.64,0-7.157,0.53-10.484,1.51l1.914,6.381c2.726-0.774,5.599-1.192,8.57-1.192
			c2.967,0,5.837,0.418,8.56,1.189l1.915-6.381C117.703,17,114.19,16.471,110.553,16.471z"/>
		<path fill="#FFFFFF" d="M103.43,29.186l1.998,6.66c1.63-0.465,3.349-0.716,5.126-0.716c1.773,0,3.488,0.25,5.115,0.713
			l1.999-6.661c-2.264-0.635-4.649-0.978-7.114-0.978C108.086,28.204,105.697,28.548,103.43,29.186z"/>
	</g>
</g>
<g>
	<g>
		<path d="M166.719,27.958l-6.759,21.156h-5.61l-3.859-12.259l-4.043,12.259h-5.597l-6.308-21.156h5.75l3.674,13.669l4.478-13.669
			h4.371l4.169,13.669l4-13.669H166.719z"/>
		<path d="M181.725,49.114h-12.04V27.958h12.04v4.588h-6.54v3.611h6.184v4.587h-6.184v3.783h6.54V49.114z"/>
		<path d="M199.874,42.115c0,3.58-1.571,5.912-4.713,6.998c-1.095,0.382-2.271,0.574-3.532,0.574c-2.646,0-5.1-0.8-7.361-2.401
			l2.354-4.434c1.656,1.5,3.276,2.248,4.861,2.248c0.713,0,1.319-0.167,1.816-0.502c0.58-0.375,0.871-0.907,0.871-1.596
			c0-0.628-0.321-1.149-0.963-1.566c-0.477-0.313-1.278-0.632-2.405-0.954c-1.368-0.403-2.228-0.682-2.579-0.837
			c-0.56-0.237-1.034-0.515-1.428-0.836c-1.128-0.928-1.693-2.332-1.693-4.21c0-1.96,0.584-3.586,1.753-4.876
			c1.363-1.517,3.183-2.276,5.454-2.276c2.284,0,4.521,0.573,6.712,1.721l-2.199,4.277c-1.204-0.94-2.415-1.411-3.638-1.411
			c-0.591,0-1.118,0.15-1.585,0.452c-0.528,0.342-0.793,0.798-0.793,1.368c0,0.561,0.347,1.043,1.041,1.447
			c0.31,0.187,1.241,0.507,2.795,0.964c1.945,0.569,3.332,1.376,4.159,2.421C199.516,39.577,199.874,40.719,199.874,42.115z"/>
		<path d="M215.885,32.546h-4.559v16.568h-5.501V32.546h-4.479v-4.588h14.538V32.546z"/>
		<path d="M231.4,49.114h-12.044V27.958H231.4v4.588h-6.541v3.611h6.185v4.587h-6.185v3.783h6.541V49.114z"/>
		<path d="M252.478,49.114h-6.835l-5.254-8.122v8.122h-5.502V27.958h8.557c2.5,0,4.349,0.75,5.547,2.248
			c0.972,1.21,1.458,2.63,1.458,4.262c0,1.87-0.559,3.364-1.674,4.479c-0.714,0.713-1.696,1.208-2.947,1.487L252.478,49.114z
			 M244.744,34.771c0-0.752-0.273-1.385-0.824-1.901c-0.519-0.484-1.354-0.726-2.504-0.726h-1.027v5.269h1.027
			c1.16,0,1.997-0.242,2.504-0.726C244.471,36.162,244.744,35.521,244.744,34.771z"/>
		<path d="M275.784,49.114h-5.501l-10.121-12.957v12.957h-5.501V27.958h5.501L270.283,40.9V27.958h5.501V49.114z"/>
	</g>
	<g>
		<path d="M175.7,57.796l-6.757,21.154h-5.611l-3.859-12.259l-4.045,12.259h-5.596l-6.307-21.154h5.75l3.674,13.67l4.479-13.67h4.37
			l4.169,13.67l3.999-13.67H175.7z"/>
		<path d="M184.167,78.95h-5.502V57.796h5.502V78.95z"/>
		<path d="M205.232,78.95h-6.836l-5.254-8.12v8.12h-5.501V57.796h8.554c2.501,0,4.351,0.749,5.548,2.247
			c0.972,1.21,1.458,2.629,1.458,4.262c0,1.87-0.559,3.363-1.674,4.479c-0.714,0.713-1.694,1.208-2.945,1.488L205.232,78.95z
			 M197.498,64.606c0-0.751-0.275-1.385-0.823-1.9c-0.52-0.482-1.355-0.726-2.505-0.726h-1.027v5.27h1.027
			c1.16,0,1.996-0.242,2.505-0.727C197.223,65.998,197.498,65.359,197.498,64.606z"/>
		<path d="M220.239,78.95h-12.043V57.796h12.043v4.587h-6.541v3.61h6.186v4.589h-6.186v3.781h6.541V78.95z"/>
		<path d="M235.83,78.95h-12.104V57.796h5.502v16.567h6.603V78.95z"/>
		<path d="M251.346,78.95h-12.042V57.796h12.042v4.587h-6.541v3.61h6.186v4.589h-6.186v3.781h6.541V78.95z"/>
		<path d="M269.494,71.952c0,3.579-1.57,5.912-4.712,6.998c-1.094,0.383-2.271,0.574-3.532,0.574c-2.646,0-5.101-0.801-7.362-2.402
			l2.354-4.432c1.658,1.497,3.277,2.246,4.862,2.246c0.714,0,1.319-0.166,1.816-0.501c0.581-0.375,0.871-0.908,0.871-1.597
			c0-0.626-0.322-1.148-0.964-1.565c-0.475-0.313-1.277-0.631-2.406-0.955c-1.366-0.403-2.225-0.681-2.576-0.836
			c-0.56-0.237-1.034-0.516-1.429-0.837c-1.128-0.927-1.692-2.332-1.692-4.21c0-1.96,0.585-3.586,1.751-4.876
			c1.364-1.517,3.184-2.275,5.456-2.275c2.282,0,4.521,0.573,6.711,1.72l-2.2,4.278c-1.202-0.94-2.415-1.411-3.637-1.411
			c-0.591,0-1.119,0.151-1.585,0.451c-0.529,0.342-0.792,0.799-0.792,1.369c0,0.561,0.347,1.043,1.04,1.447
			c0.311,0.188,1.242,0.508,2.793,0.965c1.947,0.568,3.333,1.375,4.162,2.42C269.137,69.413,269.494,70.557,269.494,71.952z"/>
		<path d="M287.628,71.952c0,3.579-1.569,5.912-4.711,6.998c-1.096,0.383-2.273,0.574-3.534,0.574c-2.644,0-5.1-0.801-7.361-2.402
			l2.355-4.432c1.657,1.497,3.276,2.246,4.86,2.246c0.715,0,1.32-0.166,1.817-0.501c0.579-0.375,0.87-0.908,0.87-1.597
			c0-0.626-0.32-1.148-0.963-1.565c-0.476-0.313-1.278-0.631-2.407-0.955c-1.366-0.403-2.224-0.681-2.576-0.836
			c-0.56-0.237-1.035-0.516-1.428-0.837c-1.13-0.927-1.692-2.332-1.692-4.21c0-1.96,0.584-3.586,1.75-4.876
			c1.364-1.517,3.185-2.275,5.456-2.275c2.283,0,4.52,0.573,6.711,1.72l-2.199,4.278c-1.202-0.94-2.415-1.411-3.639-1.411
			c-0.589,0-1.117,0.151-1.584,0.451c-0.526,0.342-0.791,0.799-0.791,1.369c0,0.561,0.346,1.043,1.038,1.447
			c0.313,0.188,1.243,0.508,2.797,0.965c1.945,0.568,3.332,1.375,4.16,2.42C287.271,69.413,287.628,70.557,287.628,71.952z"/>
	</g>
</g>
</svg>
