<?xml version="1.0" encoding="utf-8"?>
<!-- Generator: Adobe Illustrator 14.0.0, SVG Export Plug-In . SVG Version: 6.00 Build 43363)  -->
<!DOCTYPE svg PUBLIC "-//W3C//DTD SVG 1.1//EN" "http://www.w3.org/Graphics/SVG/1.1/DTD/svg11.dtd">
<svg version="1.1" id="Layer_1" xmlns="http://www.w3.org/2000/svg" xmlns:xlink="http://www.w3.org/1999/xlink" x="0px" y="0px"
	 width="100px" height="100px" viewBox="0 0 100 100" enable-background="new 0 0 100 100" xml:space="preserve">
<g id="Layer_1_3_">
	<g id="Layer_1_2_">
		<g id="Layer_1_1_">
			<circle fill="#D12529" cx="50.027" cy="50" r="50"/>
		</g>
	</g>
</g>
<g id="Layer_2" display="none">
	<g id="Layer_2_1_" display="inline">
	</g>
</g>
<g id="Layer_3" display="none">
</g>
<g>
	<g>
		<path fill="#FFFFFF" d="M52.26,39.876c-0.063-0.794-0.028-1.599-0.173-2.385c1.877-0.854,3.793-1.917,5.517-3.148
			c-0.267-1.184-0.64-2.335-1.087-3.462c-2.188-0.141-4.409-0.013-6.461,0.297c-0.431-0.67-0.785-1.393-1.294-2.011
			c-0.456-0.656-0.977-1.261-1.527-1.839c1.063-1.843,1.888-3.729,2.61-5.791c-0.917-0.779-1.877-1.523-2.909-2.151
			c-1.864,1.187-3.549,2.529-5.063,4.046c-0.705-0.377-1.468-0.62-2.216-0.898c-0.763-0.226-1.535-0.445-2.319-0.582
			c-0.237-2.043-0.667-4.185-1.302-6.216c-1.202-0.087-2.407-0.123-3.609-0.023c-0.81,2.014-1.378,4.178-1.719,6.239
			c-0.784,0.137-1.556,0.356-2.319,0.582c-0.748,0.279-1.511,0.521-2.217,0.898c-1.415-1.556-2.991-2.99-4.705-4.264
			c-1.053,0.599-2.002,1.351-2.955,2.09c0.591,2.174,1.311,4.153,2.298,6.069c-0.551,0.579-1.071,1.183-1.528,1.839
			c-0.508,0.619-0.862,1.341-1.293,2.011c-2.019-0.411-4.138-0.647-6.313-0.69c-0.427,1.133-0.868,2.264-1.131,3.448
			c1.676,1.399,3.536,2.594,5.413,3.556c-0.145,0.786-0.111,1.59-0.173,2.384c0.062,0.794,0.028,1.599,0.173,2.385
			c-1.877,0.854-3.793,1.917-5.516,3.149c0.266,1.183,0.639,2.335,1.087,3.462c2.188,0.141,4.408,0.013,6.46-0.298
			c0.431,0.67,0.785,1.394,1.293,2.013c0.457,0.656,0.977,1.261,1.528,1.838c-1.062,1.844-1.888,3.729-2.609,5.791
			c0.917,0.779,1.878,1.522,2.909,2.15c1.864-1.187,3.549-2.528,5.063-4.046c0.706,0.377,1.469,0.62,2.217,0.897
			c0.763,0.226,1.535,0.445,2.319,0.583c0.236,2.042,0.667,4.184,1.301,6.215c1.203,0.087,2.408,0.122,3.61,0.024
			c0.81-2.015,1.378-4.179,1.719-6.239c0.784-0.138,1.556-0.357,2.319-0.583c0.748-0.277,1.511-0.521,2.216-0.897
			c1.416,1.556,2.992,2.989,4.706,4.264c1.053-0.599,2.002-1.35,2.954-2.089c-0.589-2.175-1.31-4.153-2.297-6.07
			c0.551-0.577,1.072-1.182,1.527-1.838c0.509-0.619,0.863-1.342,1.294-2.013c2.019,0.412,4.137,0.648,6.313,0.69
			c0.427-1.131,0.867-2.263,1.132-3.447c-1.677-1.4-3.535-2.595-5.413-3.556C52.231,41.475,52.197,40.67,52.26,39.876z M37.5,50.575
			c-2.226,0.724-4.73,0.724-6.956,0c-2.207-0.749-4.259-2.155-5.616-4.099c-1.417-1.904-2.124-4.226-2.161-6.6
			c0.037-2.375,0.744-4.696,2.161-6.601c1.356-1.942,3.409-3.35,5.616-4.098c2.226-0.723,4.73-0.723,6.956,0
			c2.207,0.748,4.26,2.156,5.616,4.098c1.418,1.904,2.124,4.226,2.161,6.601c-0.037,2.375-0.743,4.696-2.161,6.6
			C41.759,48.42,39.707,49.827,37.5,50.575z"/>
	</g>
	<g>
		<path fill="#FFFFFF" d="M83.408,39.781c-0.361-0.401-0.676-0.849-1.076-1.213c0.657-1.233,1.251-2.596,1.671-3.97
			c-0.631-0.527-1.307-0.994-2.012-1.416c-1.236,0.826-2.38,1.811-3.356,2.824c-0.509-0.183-0.997-0.426-1.526-0.549
			c-0.517-0.165-1.046-0.276-1.58-0.36c-0.188-1.43-0.521-2.787-0.983-4.193c-0.813-0.042-1.638-0.046-2.452,0.041
			c-0.515,1.408-0.868,2.825-1.058,4.267c-0.536,0.088-1.047,0.271-1.564,0.43c-0.503,0.193-1.01,0.394-1.489,0.643
			c-0.969-1.002-2.084-1.979-3.263-2.811c-0.684,0.45-1.347,0.926-1.953,1.476c0.393,1.418,0.98,2.818,1.646,4.068
			c-0.365,0.397-0.69,0.833-1.008,1.269c-0.288,0.458-0.599,0.904-0.824,1.398c-1.403-0.255-2.843-0.377-4.291-0.356
			c-0.32,0.756-0.521,1.553-0.729,2.343c1.215,0.927,2.418,1.696,3.74,2.32c-0.059,0.54-0.09,1.079-0.065,1.621
			c-0.018,0.542,0.09,1.077,0.133,1.616c-1.257,0.61-2.494,1.358-3.683,2.232c0.236,0.785,0.467,1.576,0.813,2.322
			c1.479,0.063,2.973-0.061,4.381-0.316c0.246,0.482,0.596,0.901,0.889,1.354c0.361,0.402,0.676,0.85,1.078,1.214
			c-0.659,1.233-1.253,2.597-1.673,3.97c0.632,0.527,1.307,0.995,2.014,1.416c1.235-0.827,2.378-1.811,3.355-2.824
			c0.508,0.184,0.996,0.427,1.525,0.55c0.517,0.166,1.045,0.276,1.58,0.36c0.188,1.431,0.521,2.786,0.983,4.194
			c0.814,0.041,1.638,0.045,2.452-0.042c0.515-1.407,0.868-2.824,1.058-4.267c0.536-0.087,1.047-0.271,1.564-0.431
			c0.503-0.191,1.01-0.393,1.489-0.642c0.969,1.002,2.084,1.978,3.263,2.81c0.684-0.448,1.347-0.927,1.953-1.476
			c-0.394-1.418-0.979-2.817-1.646-4.067c0.365-0.398,0.69-0.834,1.008-1.271c0.289-0.458,0.6-0.903,0.823-1.396
			c1.404,0.254,2.843,0.376,4.292,0.355c0.32-0.757,0.521-1.553,0.729-2.343c-1.214-0.929-2.416-1.698-3.739-2.322
			c0.059-0.538,0.091-1.078,0.064-1.619c0.02-0.543-0.088-1.078-0.133-1.617c1.256-0.61,2.494-1.356,3.684-2.231
			c-0.236-0.785-0.466-1.576-0.813-2.323c-1.479-0.063-2.972,0.061-4.381,0.317C84.052,40.653,83.701,40.234,83.408,39.781z
			 M79.87,51.628c-0.899,1.308-2.248,2.34-3.745,2.868c-1.496,0.507-3.181,0.596-4.714,0.108c-1.548-0.441-2.886-1.4-3.885-2.664
			c-0.959-1.293-1.535-2.835-1.558-4.444c-0.07-1.605,0.454-3.21,1.334-4.522c0.9-1.308,2.249-2.34,3.746-2.869
			c1.496-0.507,3.183-0.595,4.714-0.108c1.548,0.44,2.885,1.399,3.884,2.664c0.96,1.293,1.537,2.834,1.559,4.445
			C81.276,48.71,80.751,50.314,79.87,51.628z"/>
	</g>
	<g>
		<path fill="#FFFFFF" d="M61.521,63.769c-0.348-0.262-0.665-0.567-1.037-0.795c0.33-1.075,0.59-2.243,0.712-3.396
			c-0.582-0.32-1.188-0.585-1.811-0.811c-0.852,0.844-1.604,1.798-2.22,2.75c-0.431-0.067-0.854-0.185-1.292-0.201
			c-0.434-0.049-0.87-0.057-1.306-0.041c-0.369-1.103-0.839-2.125-1.421-3.167c-0.651,0.093-1.304,0.215-1.936,0.411
			c-0.189,1.192-0.251,2.366-0.179,3.535c-0.412,0.152-0.788,0.375-1.172,0.582c-0.368,0.231-0.739,0.465-1.079,0.736
			c-0.921-0.644-1.953-1.244-3.014-1.721c-0.471,0.461-0.923,0.939-1.317,1.468c0.528,1.061,1.208,2.077,1.927,2.965
			c-0.229,0.37-0.418,0.765-0.603,1.158c-0.158,0.407-0.334,0.807-0.437,1.233c-1.15,0.014-2.308,0.139-3.449,0.377
			c-0.137,0.647-0.173,1.311-0.218,1.965c1.104,0.548,2.173,0.972,3.315,1.263c0.037,0.436,0.095,0.867,0.198,1.291
			c0.069,0.433,0.237,0.838,0.353,1.259c-0.9,0.675-1.764,1.456-2.57,2.331c0.309,0.584,0.611,1.173,1,1.711
			c1.18-0.177,2.342-0.504,3.417-0.924c0.269,0.344,0.609,0.622,0.911,0.935c0.348,0.264,0.666,0.568,1.04,0.795
			c-0.331,1.077-0.592,2.246-0.713,3.397c0.58,0.319,1.187,0.585,1.81,0.811c0.85-0.844,1.603-1.797,2.22-2.75
			c0.43,0.066,0.854,0.185,1.292,0.202c0.433,0.048,0.869,0.057,1.306,0.04c0.368,1.104,0.84,2.125,1.42,3.168
			c0.651-0.094,1.303-0.218,1.936-0.411c0.189-1.193,0.251-2.367,0.18-3.537c0.411-0.151,0.786-0.374,1.172-0.581
			c0.367-0.228,0.738-0.466,1.078-0.735c0.921,0.642,1.953,1.242,3.012,1.72c0.474-0.461,0.924-0.939,1.32-1.469
			c-0.53-1.06-1.209-2.076-1.927-2.963c0.227-0.371,0.418-0.766,0.602-1.16c0.158-0.404,0.336-0.806,0.436-1.231
			c1.15-0.015,2.307-0.14,3.45-0.378c0.136-0.647,0.174-1.31,0.216-1.965c-1.103-0.549-2.172-0.972-3.314-1.262
			c-0.035-0.435-0.094-0.866-0.197-1.29c-0.068-0.434-0.235-0.841-0.354-1.261c0.899-0.675,1.765-1.456,2.57-2.33
			c-0.307-0.585-0.611-1.175-0.999-1.712c-1.181,0.177-2.344,0.505-3.416,0.925C62.163,64.359,61.822,64.083,61.521,63.769z
			 M60.542,73.683c-0.51,1.173-1.418,2.196-2.521,2.846c-1.105,0.63-2.425,0.959-3.712,0.809c-1.292-0.111-2.498-0.663-3.482-1.511
			c-0.958-0.876-1.65-2.005-1.916-3.275c-0.303-1.259-0.135-2.608,0.361-3.78c0.511-1.175,1.419-2.198,2.522-2.846
			c1.105-0.631,2.426-0.959,3.71-0.811c1.294,0.111,2.5,0.664,3.482,1.51c0.958,0.876,1.651,2.007,1.916,3.278
			C61.206,71.159,61.038,72.508,60.542,73.683z"/>
	</g>
</g>
</svg>
