<?xml version="1.0" encoding="utf-8"?>
<!-- Generator: Adobe Illustrator 14.0.0, SVG Export Plug-In . SVG Version: 6.00 Build 43363)  -->
<!DOCTYPE svg PUBLIC "-//W3C//DTD SVG 1.1//EN" "http://www.w3.org/Graphics/SVG/1.1/DTD/svg11.dtd">
<svg version="1.1" xmlns="http://www.w3.org/2000/svg" xmlns:xlink="http://www.w3.org/1999/xlink" x="0px" y="0px" width="100px"
	 height="100px" viewBox="0 0 100 100" enable-background="new 0 0 100 100" xml:space="preserve">
<g id="Layer_1">
	<circle fill="#D12529" cx="50" cy="50" r="50"/>
</g>
<g id="Layer_2">
	<path fill="#FFFFFF" d="M59.632,68.813c-2.699-0.508-5.267-0.756-7.6-0.846v-7.154h-0.531v-48.5h3.197c1.465,0,2.652-1.343,2.652-3
		s-1.188-3-2.652-3h-9.396c-1.465,0-2.652,1.343-2.652,3s1.188,3,2.652,3H48.5v48.5h-0.531v7.15c-4.603,0.166-7.587,0.85-7.587,0.85
		c-3.5,23.125,9.624,24.875,9.624,24.875C63.757,89.813,59.632,68.813,59.632,68.813z M44.416,9.313
		c0-0.759,0.545-1.375,1.216-1.375h8.955c0.672,0,1.216,0.616,1.216,1.375s-0.544,1.375-1.216,1.375h-8.955
		C44.961,10.688,44.416,10.072,44.416,9.313z"/>
</g>
</svg>
