<?xml version="1.0" encoding="utf-8"?>
<!-- Generator: Adobe Illustrator 14.0.0, SVG Export Plug-In . SVG Version: 6.00 Build 43363)  -->
<!DOCTYPE svg PUBLIC "-//W3C//DTD SVG 1.1//EN" "http://www.w3.org/Graphics/SVG/1.1/DTD/svg11.dtd">
<svg version="1.1" id="Layer_2" xmlns="http://www.w3.org/2000/svg" xmlns:xlink="http://www.w3.org/1999/xlink" x="0px" y="0px"
	 width="413px" height="114px" viewBox="0 0 413 114" enable-background="new 0 0 413 114" xml:space="preserve">
<g>
	<path fill="#020202" d="M166.718,50.412h-7.026c-0.316,0.481-4.649,7.817-13.002,22.007v0.104h8.16
		c0.151-0.205,2.94-4.917,8.366-14.136c0.027,0,0.336,0.494,0.927,1.483c4.822,8.243,7.329,12.46,7.521,12.652h8.119V72.48
		c-0.234-0.425-3.139-5.37-8.716-14.835C168.304,52.946,166.855,50.536,166.718,50.412z"/>
	<path fill="#020202" d="M234.307,50.412h-7.027c-0.316,0.481-4.649,7.817-13.002,22.007v0.104h8.159
		c0.151-0.205,2.94-4.917,8.366-14.136c0.027,0,0.337,0.494,0.928,1.483c4.822,8.243,7.328,12.46,7.521,12.652h8.119V72.48
		c-0.234-0.425-3.14-5.37-8.718-14.835C235.893,52.946,234.443,50.536,234.307,50.412z"/>
	<path fill="#020202" d="M282.525,50.412h-7.091c-0.026,0-3.158,3.647-9.396,10.942l-9.436-10.942h-7.07
		c-0.054,0-0.088,0.035-0.103,0.104v21.904c0,0.069,0.034,0.104,0.103,0.104h6.862c0.068,0,0.104-0.034,0.104-0.104V59.376
		c6.278,7.294,9.444,10.949,9.5,10.963h0.102l9.438-10.963v13.043c0,0.069,0.035,0.104,0.104,0.104h6.883
		c0.055,0,0.081-0.034,0.081-0.104V50.515C282.606,50.46,282.58,50.426,282.525,50.412z"/>
	<g>
		<path fill="#020202" d="M313.948,53.276c-1.552-1.91-3.565-2.865-6.037-2.865h-16.423c-0.674,0-1.56,0.186-2.658,0.557
			c-2.775,1.305-4.163,3.132-4.163,5.482v10.097c0,1.059,0.345,2.074,1.03,3.05c1.595,1.951,3.593,2.926,5.996,2.926h16.218
			c1.181,0,2.301-0.247,3.358-0.741c2.515-1.292,3.771-3.056,3.771-5.297v-9.993C315.04,55.365,314.676,54.292,313.948,53.276z
			 M307.952,63.725c0,0.411-0.048,0.74-0.144,0.988c-0.646,1.717-1.78,2.575-3.401,2.575h-9.065c-0.289,0-0.564-0.033-0.825-0.102
			c-1.854-0.591-2.782-1.78-2.782-3.565v-4.349c0-0.357,0.049-0.708,0.145-1.051c0.646-1.703,1.801-2.555,3.463-2.555h8.653
			c0.386,0,0.831,0.028,1.341,0.082c1.742,0.632,2.616,1.889,2.616,3.771V63.725z"/>
	</g>
	<path fill="#020202" d="M379.761,50.418h-6.799c-0.081,0-0.147,0.066-0.147,0.148v12.785l-16.219-12.871l-0.042-0.034
		c-0.021-0.013-0.043-0.029-0.07-0.029h-6.799c-0.082,0-0.149,0.066-0.149,0.148v3.372v18.431c0,0.081,0.067,0.148,0.149,0.148
		h6.799c0.082,0,0.149-0.067,0.149-0.148v-12.8l16.208,12.862l0.09,0.07c0.012,0.005,0.019,0.016,0.031,0.016h4.964h1.835
		c0.082,0,0.148-0.067,0.148-0.148v-2.35v-1.036V50.566C379.909,50.484,379.843,50.418,379.761,50.418z"/>
	<path fill="#020202" d="M347.372,50.412h-6.883c-0.055,0-0.089,0.035-0.103,0.104v16.773h-12.611c-0.33,0-0.688-0.054-1.071-0.164
		c-1.689-0.591-2.535-1.854-2.535-3.792V50.515c0-0.055-0.035-0.089-0.102-0.104h-6.862c-0.056,0-0.09,0.035-0.104,0.104v16.032
		c0,1.222,0.446,2.376,1.34,3.462c1.579,1.676,3.373,2.514,5.378,2.514h23.553c0.069,0,0.104-0.034,0.104-0.104V50.515
		C347.476,50.46,347.441,50.426,347.372,50.412z"/>
	<path fill="#020202" d="M412.24,50.412h-30.166c-0.056,0-0.091,0.035-0.104,0.104v5.048c0,0.068,0.034,0.104,0.104,0.104h11.559
		v16.752c0,0.069,0.034,0.104,0.104,0.104h6.883c0.067,0,0.103-0.034,0.103-0.104V55.667h11.519c0.068,0,0.104-0.035,0.104-0.104
		v-5.048C412.344,50.46,412.309,50.426,412.24,50.412z"/>
	<path fill="#020202" d="M150.462,60.447v-4.101c0-0.934-0.329-1.923-0.989-2.966c-1.607-1.979-3.62-2.968-6.038-2.968h-0.133h-6.88
		h-16.231c-0.056,0-0.09,0.035-0.104,0.104v21.904c0,0.069,0.034,0.104,0.104,0.104h6.862c0.069,0,0.103-0.034,0.103-0.104V71.09
		v-4.646v-5.255v-5.521h6.233h6.88h0.384c0.357,0,0.708,0.049,1.051,0.144c1.112,0.439,1.668,1.326,1.668,2.658
		c0,0.276-0.028,0.557-0.082,0.845c-0.385,1.251-1.292,1.875-2.72,1.875h-3.491h-6.879l-3.034,5.255h6.879h9.574
		c1.195,0,2.404-0.316,3.627-0.947C149.39,64.122,150.462,62.439,150.462,60.447z"/>
	<path fill="#020202" d="M212.217,60.447V56.45c0-1.293-0.481-2.494-1.442-3.606c-1.582-1.622-3.429-2.432-5.543-2.432h-23.285
		c-0.055,0-0.089,0.035-0.104,0.104v21.904c0,0.069,0.035,0.104,0.104,0.104h6.861c0.07,0,0.104-0.034,0.104-0.104v-5.976h0.007
		v-5.255h-0.007v-5.521h13.497c0.357,0,0.708,0.049,1.051,0.144c1.113,0.439,1.668,1.326,1.668,2.658
		c0,0.276-0.026,0.557-0.081,0.845c-0.167,0.543-0.438,0.96-0.802,1.267c-0.475,0.402-1.109,0.608-1.918,0.608h-2.712h-3.531
		c2.091,3.155,3.268,4.896,3.531,5.228v0.027h0.023c0.002,0.004,0.006,0.009,0.009,0.012h0.01c2.521,3.812,3.886,5.835,4.093,6.067
		h8.365l0.104-0.042l-4.308-6.49l0.887-0.391C211.076,64.238,212.217,62.521,212.217,60.447z"/>
</g>
<g>
	<path fill="#020202" d="M53.636,20.954c0.378-3.72-2.321-9.136-7.073-13.439c-3.992-3.616-8.79-5.862-12.519-5.862
		c-1.263,0-3.012,0.269-4.174,1.552c-0.99,1.093-1.328,2.67-1.106,4.492c0.394,0.042,0.788,0.087,1.183,0.14
		c5.433,0.722,10.434,2.327,14.082,4.523c3.021,1.819,4.873,3.909,5.388,6.031c0.113-0.008,0.225-0.013,0.334-0.014
		C50.728,18.367,52.354,19.717,53.636,20.954z"/>
	<path fill="#020202" d="M42.948,14.154c-3.407-2.05-8.122-3.557-13.276-4.241c-0.14-0.019-0.28-0.035-0.419-0.052
		c-0.38-0.047-0.761-0.089-1.141-0.127c-0.376-0.037-0.751-0.068-1.126-0.095c-1.019-0.074-2.028-0.111-3.02-0.111
		c-7.738,0-13.661,2.3-14.081,5.47c-0.214,1.611,1.023,3.443,3.427,5.131c1.645-0.589,3.402-1.094,5.247-1.494
		c2.862-0.621,5.694-0.936,8.419-0.936c1.641,0,3.179,0.113,4.602,0.326c0.577,0.087,1.136,0.188,1.673,0.309
		c0.712,0.159,1.386,0.347,2.022,0.562c2.402,0.811,4.243,2.008,5.378,3.521c2.26-1.66,4.635-2.975,6.701-3.614
		C46.94,17.271,45.405,15.633,42.948,14.154z"/>
	<path fill="#020202" d="M38.993,23.714c-0.933-1.243-2.588-2.25-4.765-2.932c-2.024-0.635-4.495-0.989-7.25-0.989
		c-2.576,0-5.259,0.299-7.975,0.889c-1.137,0.246-2.244,0.539-3.312,0.87c-0.463,0.143-0.917,0.293-1.365,0.451
		c-0.428,0.15-0.849,0.307-1.26,0.469C5.959,25.27,1.225,29.757,2.044,33.528c0.477,2.201,2.896,3.922,6.489,4.834
		c0.784-0.83,1.613-1.642,2.485-2.424c5.728-5.15,12.263-8.33,17.683-8.643c0.293-0.017,0.584-0.027,0.871-0.027
		c0.889,0,1.728,0.087,2.507,0.256c0.856,0.186,1.64,0.473,2.345,0.855C35.666,26.768,37.26,25.158,38.993,23.714z"/>
	<path fill="#020202" d="M31.849,33.871c0.079-1.147,0.581-2.43,1.379-3.754c-1.007-0.497-2.241-0.755-3.656-0.755
		c-5.002,0-11.574,3.117-17.154,8.133c-0.487,0.438-0.959,0.885-1.417,1.338c-0.309,0.306-0.612,0.615-0.909,0.926
		c-0.29,0.305-0.571,0.614-0.847,0.924c-2.639,2.966-4.648,6.143-5.792,9.216c-1.482,3.981-1.324,7.257,0.444,9.224
		c1.134,1.261,2.925,1.933,5.18,1.947c0.83-2.062,1.822-4.121,2.969-6.14c3.893-6.866,9.01-12.322,14.182-15.451
		c2.133-1.291,4.275-2.182,6.345-2.614C32.079,35.715,31.792,34.675,31.849,33.871z"/>
	<path fill="#020202" d="M33.54,38.815c-6.555,1.091-14.391,7.833-19.673,17.146c-0.92,1.622-1.735,3.267-2.442,4.915
		c-0.161,0.376-0.317,0.751-0.468,1.126c-0.146,0.366-0.287,0.732-0.421,1.099c-1.487,4.023-2.307,8.009-2.367,11.655
		c-0.092,5.58,1.607,9.646,4.784,11.448c1.173,0.665,2.52,1.002,4.002,1.002c0.497,0,1.005-0.041,1.52-0.114
		c-0.176-4.634,0.441-9.85,1.813-15.111c1.689-6.482,4.395-12.441,7.617-16.78c3.322-4.472,6.991-6.935,10.33-6.935
		c0.554,0,1.102,0.069,1.631,0.202l0.043-0.567C39.909,47.9,35.907,43.103,33.54,38.815z"/>
	<path fill="#020202" d="M39.699,50.6c-0.101-0.035-0.204-0.067-0.309-0.094c-0.373-0.097-0.761-0.146-1.155-0.146
		c-5.69,0-12.684,9.729-15.921,22.149c-1.284,4.923-1.878,9.782-1.757,14.111c0.011,0.364,0.026,0.724,0.046,1.08
		c0.021,0.361,0.046,0.719,0.078,1.071c0.074,0.832,0.172,1.641,0.306,2.418c0.842,4.94,2.842,8.17,5.488,8.86
		c0.372,0.097,0.762,0.146,1.155,0.146c1.479,0,3.046-0.66,4.613-1.851c-1.322-4.626-1.754-10.065-1.225-15.68
		c0.007-0.081,0.012-0.16,0.02-0.239c0.045-0.455,0.097-0.908,0.154-1.359c0.076-0.591,0.163-1.175,0.257-1.758
		c0.911-5.571,2.734-10.688,5.255-14.642c0.966-1.516,2.006-2.815,3.098-3.89c-0.377-1.98-0.518-4.817-0.518-4.817L39.699,50.6z"/>
	<path fill="#020202" d="M61.042,18.377c0.172,0.001,0.35,0.012,0.531,0.029c0.529-2.108,2.375-4.185,5.379-5.994
		c3.648-2.196,8.649-3.802,14.082-4.523c0.395-0.052,0.79-0.098,1.183-0.14c0.223-1.823-0.116-3.399-1.105-4.493
		c-1.163-1.283-2.911-1.552-4.173-1.552c-3.73,0-8.526,2.247-12.52,5.861c-4.727,4.281-7.422,9.663-7.078,13.38
		C58.538,19.712,60.066,18.367,61.042,18.377z"/>
	<path fill="#020202" d="M75.707,18.948c0.636-0.215,1.31-0.404,2.023-0.563c0.535-0.12,1.095-0.221,1.672-0.308
		c1.421-0.213,2.96-0.326,4.602-0.326c2.725,0,5.557,0.314,8.418,0.936c1.846,0.401,3.602,0.904,5.248,1.494
		c2.403-1.687,3.641-3.519,3.427-5.13c-0.421-3.17-6.343-5.47-14.082-5.47c-0.991,0-2,0.038-3.02,0.111
		c-0.374,0.027-0.75,0.059-1.126,0.096c-0.379,0.037-0.759,0.08-1.141,0.126c-0.14,0.017-0.278,0.033-0.419,0.052
		c-5.154,0.684-9.869,2.19-13.277,4.24c-2.46,1.481-3.996,3.123-4.407,4.654c2.066,0.674,4.424,2,6.66,3.662
		C71.418,20.983,73.276,19.767,75.707,18.948z"/>
	<path fill="#020202" d="M76.452,28.489c0.731-0.411,1.551-0.717,2.45-0.912c0.779-0.17,1.618-0.257,2.507-0.257
		c0.287,0,0.578,0.012,0.871,0.027c5.419,0.313,11.955,3.492,17.683,8.643c0.872,0.783,1.7,1.595,2.485,2.424
		c3.593-0.912,6.012-2.632,6.489-4.833c0.818-3.771-3.915-8.259-11.022-11.057c-0.412-0.163-0.832-0.318-1.259-0.47
		c-0.447-0.157-0.902-0.308-1.365-0.451c-1.068-0.331-2.175-0.623-3.313-0.871c-2.716-0.589-5.398-0.888-7.974-0.888
		c-2.756,0-5.227,0.354-7.251,0.989c-2.213,0.693-3.89,1.724-4.813,2.997C73.657,25.277,75.232,26.883,76.452,28.489z"/>
	<path fill="#020202" d="M78.213,36.879c2.13,0.417,4.339,1.322,6.539,2.653c5.173,3.128,10.29,8.585,14.183,15.449
		c1.146,2.021,2.139,4.08,2.969,6.142c2.256-0.014,4.046-0.687,5.18-1.947c1.768-1.967,1.926-5.241,0.444-9.224
		c-1.144-3.073-3.153-6.25-5.793-9.216c-0.275-0.311-0.556-0.619-0.846-0.924c-0.297-0.312-0.599-0.62-0.909-0.926
		c-0.458-0.453-0.931-0.9-1.417-1.338c-5.579-5.017-12.152-8.133-17.153-8.133c-1.472,0-2.746,0.28-3.776,0.816
		c0.759,1.284,1.233,2.527,1.312,3.64C79,34.678,78.711,35.725,78.213,36.879z"/>
	<path fill="#020202" d="M70.935,48.569c0.044-0.012,0.085-0.026,0.128-0.036c0.545-0.143,1.112-0.214,1.684-0.214
		c3.339,0,7.008,2.463,10.329,6.935c3.222,4.338,5.928,10.297,7.617,16.779c1.374,5.262,1.988,10.479,1.813,15.112
		c0.515,0.072,1.023,0.113,1.52,0.113c1.481,0,2.829-0.338,4.001-1.003c3.176-1.801,4.876-5.867,4.784-11.449
		c-0.062-3.645-0.88-7.63-2.367-11.653c-0.134-0.365-0.275-0.732-0.421-1.098c-0.15-0.376-0.307-0.751-0.468-1.126
		c-0.707-1.648-1.523-3.295-2.442-4.915c-5.337-9.41-13.278-16.193-19.873-17.178c-2.368,4.283-6.358,9.063-6.358,9.063
		L70.935,48.569z"/>
	<path fill="#020202" d="M71.013,60.672c1.154,1.103,2.251,2.456,3.266,4.049c2.521,3.955,4.345,9.07,5.255,14.642
		c0.094,0.581,0.182,1.168,0.257,1.759c0.057,0.45,0.11,0.902,0.155,1.358c0.006,0.079,0.012,0.159,0.02,0.238
		c0.529,5.615,0.097,11.055-1.225,15.681c1.566,1.192,3.133,1.85,4.612,1.85c0.395,0,0.784-0.05,1.156-0.146
		c2.646-0.689,4.646-3.919,5.488-8.859c0.133-0.777,0.232-1.587,0.305-2.418c0.032-0.353,0.058-0.71,0.078-1.071
		c0.021-0.355,0.035-0.716,0.046-1.08c0.122-4.328-0.473-9.188-1.757-14.111c-3.237-12.419-10.231-22.15-15.921-22.15
		c-0.395,0-0.783,0.05-1.156,0.147c-0.167,0.044-0.328,0.1-0.488,0.161l0.409,5.242C71.512,55.961,71.375,58.697,71.013,60.672z"/>
	<path fill="#020202" d="M43.05,68.209c-0.062-0.56,0.837-2.093,0.837-2.093s-2.298-1.979-3.299-3.288
		c-0.733,0.813-1.443,1.749-2.119,2.81c-1.837,2.882-3.282,6.437-4.243,10.354c-0.18,0.734-0.343,1.481-0.488,2.24
		c-0.123,0.635-0.234,1.277-0.33,1.927c-0.114,0.765-0.21,1.538-0.288,2.318c-0.499,5.05-0.187,9.938,0.875,14.16
		c0.097,0.389,0.202,0.771,0.313,1.149c0.109,0.373,0.225,0.739,0.348,1.099c0.185,0.553,0.382,1.093,0.596,1.613
		c1.945,4.722,4.801,7.499,8.043,7.82c1.481,0.146,2.987-0.231,4.454-1.086c-1.542-4.122-2.386-9.368-2.386-14.909
		c0-5.964,0.976-11.586,2.749-15.832c0.158-0.378,0.321-0.739,0.488-1.088c-0.314-0.086-0.599-0.18-0.838-0.283
		C45.845,74.284,43.278,70.288,43.05,68.209z"/>
	<path fill="#020202" d="M66.905,66.116c0,0,0.898,1.533,0.837,2.093c-0.228,2.079-2.795,6.075-4.711,6.911
		c-0.183,0.079-0.394,0.153-0.625,0.223c0.179,0.367,0.351,0.749,0.518,1.148c1.773,4.246,2.748,9.868,2.748,15.832
		c0,5.561-0.85,10.825-2.402,14.953c1.443,0.824,2.922,1.187,4.377,1.042c3.242-0.321,6.099-3.099,8.043-7.821
		c0.215-0.52,0.412-1.06,0.596-1.612c0.122-0.359,0.238-0.726,0.347-1.1c0.111-0.378,0.217-0.76,0.314-1.148
		c1.06-4.222,1.373-9.11,0.873-14.16c-0.076-0.78-0.174-1.554-0.288-2.318c-0.096-0.649-0.208-1.292-0.33-1.927
		c-0.145-0.759-0.308-1.506-0.489-2.24c-0.961-3.917-2.405-7.472-4.243-10.354c-0.701-1.101-1.438-2.066-2.199-2.901
		C69.312,64.042,66.905,66.116,66.905,66.116z"/>
	<path fill="#020202" d="M50.737,75.807c-0.24,0.463-0.472,0.96-0.694,1.491c-1.668,3.996-2.586,9.333-2.586,15.025
		c0,5.056,0.725,9.829,2.057,13.634c0.167,0.479,0.343,0.944,0.529,1.391c1.525,3.653,3.521,5.748,5.474,5.748
		c1.955,0,3.951-2.095,5.475-5.748c0.179-0.428,0.347-0.874,0.509-1.331c1.344-3.813,2.078-8.611,2.078-13.693
		c0-5.692-0.919-11.029-2.587-15.025c-0.226-0.541-0.462-1.047-0.706-1.517c-1.728,0.248-3.671,0.345-4.829,0.341
		C54.314,76.12,52.437,76.033,50.737,75.807z"/>
	<path fill="#020202" d="M55.246,16.959c0.09,0.001,0.18,0.004,0.271,0.004c0.061,0,0.12-0.002,0.179-0.003
		c0.623-3.361,2.853-7.397,6.303-10.848c0.647-0.647,1.32-1.255,2.01-1.821c-2.076-1.585-5.109-2.586-8.492-2.586
		c-3.408,0-6.462,1.016-8.538,2.623c0.674,0.556,1.332,1.152,1.965,1.785C52.394,9.563,54.624,13.598,55.246,16.959z"/>
	<g>
		<path fill="#020202" d="M37.406,32.199c-0.015-1.465,3.501-3.221,4.964-3.12c1.559,0.106,5.602,2.766,5.602,2.766v16.037
			L46.92,35.69l-6.336-1.576C40.584,34.114,37.414,33.126,37.406,32.199z"/>
		<path fill="#020202" d="M72.921,32.199c0.015-1.465-3.502-3.221-4.964-3.12c-1.559,0.106-5.604,2.766-5.604,2.766v16.037
			l1.053-12.191l6.336-1.576C69.743,34.114,72.913,33.126,72.921,32.199z"/>
	</g>
	<path fill="#020202" d="M64.938,63.308c0,0-0.153-0.343-0.733,0.143c-0.986,0.827-2.831,1.374-5.145-0.17
		c0,0-2.069-1.309-3.448-2.439v-4.147c1.306-0.515,6.171-2.477,7.644-3.731c0.487-0.416,1.332-1.918,0.904-2.394
		c-0.766-0.851-2.408,0.707-4.436,1.488c-2.09,0.807-4.514,0.852-4.514,0.852h-0.04c0,0-2.465-0.069-4.553-0.874
		c-2.029-0.783-3.672-2.339-4.437-1.489c-0.427,0.476,0.417,1.979,0.904,2.394c1.453,1.238,6.285,3.179,7.694,3.731v4.118
		c-1.378,1.143-3.511,2.492-3.511,2.492c-2.313,1.544-4.16,0.997-5.146,0.17c-0.579-0.485-0.732-0.143-0.732-0.143
		c-1.25,2.873,0.957,4.229,0.957,4.229c0.479,0.372,0.622,0,0.622,0c3.494-4.177,8.191-3.707,8.191-3.707v-0.006
		c0.002,0,0.004,0,0.005,0v0.006c0,0,4.699-0.47,8.192,3.707c0,0,0.143,0.372,0.622,0C63.979,67.537,66.187,66.181,64.938,63.308z"
		/>
</g>
<g>
	<path fill="#020202" d="M195.043,89.761c0,2.372-1.448,4.134-4.232,4.134c-2.799,0-4.248-1.762-4.248-4.134v-6.179h2.216v6.094
		c0,1.235,0.853,2.174,2.032,2.174c1.165,0,2.017-0.938,2.017-2.174v-6.094h2.216V89.761z"/>
	<path fill="#020202" d="M199.033,85.542h-2.869v-1.96h7.956v1.96h-2.87v8.097h-2.216V85.542z"/>
	<path fill="#020202" d="M205.211,83.582h2.216v10.057h-2.216V83.582z"/>
	<path fill="#020202" d="M208.534,83.582h2.216v8.011h4.105v2.046h-6.321V83.582z"/>
	<path fill="#020202" d="M216.047,83.582h2.216v10.057h-2.216V83.582z"/>
	<path fill="#020202" d="M222.225,85.542h-2.869v-1.96h7.955v1.96h-2.869v8.097h-2.217V85.542z"/>
	<path fill="#020202" d="M232.205,89.349l-3.778-5.767h2.757l2.13,3.764l2.259-3.764h2.628l-3.778,5.767v4.29h-2.217V89.349z"/>
	<path fill="#020202" d="M249.718,86.195c-0.44-0.526-1.079-0.824-1.903-0.824c-1.676,0-2.912,1.363-2.912,3.239
		c0,1.875,1.236,3.239,2.841,3.239c0.896,0,1.619-0.398,2.074-1.08l1.847,1.378c-0.838,1.192-2.259,1.747-3.636,1.747
		c-3.141,0-5.428-2.06-5.428-5.284s2.287-5.284,5.428-5.284c1.121,0,2.542,0.383,3.395,1.477L249.718,86.195z"/>
	<path fill="#020202" d="M257.756,83.326c3.139,0,5.426,2.06,5.426,5.284s-2.287,5.284-5.426,5.284c-3.14,0-5.427-2.06-5.427-5.284
		S254.616,83.326,257.756,83.326z M257.756,91.85c1.889,0,3.125-1.364,3.125-3.239c0-1.876-1.236-3.239-3.125-3.239
		c-1.89,0-3.126,1.363-3.126,3.239C254.63,90.485,255.866,91.85,257.756,91.85z"/>
	<path fill="#020202" d="M264.299,83.582h3.892c2.06,0,3.793,0.71,3.793,3.054c0,1.406-0.753,2.5-2.174,2.756l2.558,4.247h-2.656
		l-2.103-4.021h-1.094v4.021h-2.216V83.582z M266.515,87.744h1.307c0.81,0,1.86-0.029,1.86-1.123c0-1.008-0.908-1.164-1.718-1.164
		h-1.449V87.744z"/>
	<path fill="#020202" d="M273.502,83.582h3.735c2.088,0,3.821,0.667,3.821,3.054c0,2.357-1.605,3.083-3.722,3.083h-1.619v3.92
		h-2.216V83.582z M275.718,87.843h1.477c0.782,0,1.563-0.27,1.563-1.207c0-1.037-1.052-1.179-1.903-1.179h-1.137V87.843z"/>
	<path fill="#020202" d="M287.336,83.326c3.139,0,5.426,2.06,5.426,5.284s-2.287,5.284-5.426,5.284c-3.141,0-5.428-2.06-5.428-5.284
		S284.195,83.326,287.336,83.326z M287.336,91.85c1.889,0,3.125-1.364,3.125-3.239c0-1.876-1.236-3.239-3.125-3.239
		c-1.89,0-3.126,1.363-3.126,3.239C284.21,90.485,285.446,91.85,287.336,91.85z"/>
	<path fill="#020202" d="M293.878,83.582h3.893c2.06,0,3.793,0.71,3.793,3.054c0,1.406-0.753,2.5-2.174,2.756l2.557,4.247h-2.656
		l-2.102-4.021h-1.095v4.021h-2.216V83.582z M296.094,87.744h1.308c0.809,0,1.86-0.029,1.86-1.123c0-1.008-0.909-1.164-1.719-1.164
		h-1.449V87.744z"/>
	<path fill="#020202" d="M307.41,83.582h1.832l4.376,10.057h-2.501l-0.867-2.131h-3.905l-0.839,2.131h-2.442L307.41,83.582z
		 M308.262,86.508l-1.222,3.125h2.458L308.262,86.508z"/>
	<path fill="#020202" d="M314.833,85.542h-2.869v-1.96h7.955v1.96h-2.87v8.097h-2.216V85.542z"/>
	<path fill="#020202" d="M321.035,83.582h2.216v10.057h-2.216V83.582z"/>
	<path fill="#020202" d="M329.794,83.326c3.14,0,5.427,2.06,5.427,5.284s-2.287,5.284-5.427,5.284c-3.139,0-5.426-2.06-5.426-5.284
		S326.655,83.326,329.794,83.326z M329.794,91.85c1.89,0,3.126-1.364,3.126-3.239c0-1.876-1.236-3.239-3.126-3.239
		c-1.889,0-3.125,1.363-3.125,3.239C326.669,90.485,327.905,91.85,329.794,91.85z"/>
	<path fill="#020202" d="M336.338,83.582h3.011l4.276,6.988h0.028v-6.988h2.216v10.057h-2.897l-4.39-7.159h-0.028v7.159h-2.216
		V83.582z"/>
</g>
</svg>
