<?xml version="1.0" encoding="utf-8"?>
<!-- Generator: Adobe Illustrator 14.0.0, SVG Export Plug-In . SVG Version: 6.00 Build 43363)  -->
<!DOCTYPE svg PUBLIC "-//W3C//DTD SVG 1.1//EN" "http://www.w3.org/Graphics/SVG/1.1/DTD/svg11.dtd">
<svg version="1.1" xmlns="http://www.w3.org/2000/svg" xmlns:xlink="http://www.w3.org/1999/xlink" x="0px" y="0px" width="100px"
	 height="100px" viewBox="0 0 100 100" enable-background="new 0 0 100 100" xml:space="preserve">
<g id="Layer_1">
	<g id="Layer_1_1_">
		<circle fill="#D12529" cx="50.093" cy="50" r="50"/>
	</g>
	<path fill="#FFFFFF" d="M88.299,53.184v-9.234l-8.381-3.078c-0.73-2.819-1.709-5.481-3.156-7.929l0.084-0.011l3.988-8.308
		l-6.512-6.529l-8.299,3.953l-0.008,0.012c-2.447-1.447-5.105-2.366-7.924-3.095L55.016,10.5h-9.235l-3.078,8.464
		c-2.82,0.729-5.481,1.751-7.929,3.199l-0.013-0.064l-8.306-3.979l-6.529,6.516l3.952,8.301l0.014,0.01
		c-1.449,2.447-2.884,5.106-3.613,7.926l-8.979,3.077v9.234l8.98,3.079c0.729,2.82,2.008,5.48,3.457,7.929l0.064,0.011l-3.914,8.307
		l6.548,6.531l8.317-3.953l0.017-0.013c2.447,1.447,5.111,2.799,7.931,3.529l3.08,8.896h9.235l3.078-8.896
		c2.82-0.73,5.48-1.969,7.928-3.415l0.012-0.046l8.309,3.927l6.529-6.544l-3.953-8.315l-0.012-0.017
		c1.445-2.448,2.283-5.11,3.012-7.929L88.299,53.184z"/>
	<polygon fill="#D12529" points="50.599,25.858 56.979,38.789 71.249,40.862 60.923,50.929 63.36,65.141 50.599,58.431 
		37.834,65.141 40.272,50.929 29.946,40.862 44.216,38.789 	"/>
</g>
<g id="Layer_2">
</g>
</svg>
