<?xml version="1.0" encoding="utf-8"?>
<!-- Generator: Adobe Illustrator 14.0.0, SVG Export Plug-In . SVG Version: 6.00 Build 43363)  -->
<!DOCTYPE svg PUBLIC "-//W3C//DTD SVG 1.1//EN" "http://www.w3.org/Graphics/SVG/1.1/DTD/svg11.dtd">
<svg version="1.1" xmlns="http://www.w3.org/2000/svg" xmlns:xlink="http://www.w3.org/1999/xlink" x="0px" y="0px" width="100px"
	 height="100px" viewBox="0 0 100 100" enable-background="new 0 0 100 100" xml:space="preserve">
<g id="Layer_1">
	<g id="Layer_1_2_">
		<g id="Layer_1_1_">
			<circle fill="#D12529" cx="50" cy="50" r="50"/>
		</g>
	</g>
</g>
<g id="Layer_4">
	<g id="Layer_3_1_">
		<polyline fill="none" stroke="#FFFFFF" stroke-width="2" points="28.167,90.125 50,28 72.962,90.25 		"/>
	</g>
	<g id="Layer_4_1_">
	</g>
	<polyline fill="none" stroke="#FFFFFF" stroke-width="2" points="59.688,54.813 38.563,61.625 38.563,62.438 65.75,71.563 	"/>
	<line fill="none" stroke="#FFFFFF" stroke-width="2" x1="65.625" y1="72.125" x2="31.438" y2="81.5"/>
	<circle fill="#FFFFFF" cx="50.063" cy="28" r="9.063"/>
	<g>
		<path fill="none" stroke="#FFFFFF" stroke-width="2" d="M64,38.969"/>
		<path fill="none" stroke="#FFFFFF" stroke-width="2" d="M64,38.969c2.394-3.03,3.833-6.849,3.833-11.01s-1.439-7.98-3.833-11.01"
			/>
		<path fill="none" stroke="#FFFFFF" stroke-width="2" d="M35.917,17.17c-2.291,2.995-3.667,6.727-3.667,10.789
			s1.376,7.794,3.667,10.789"/>
	</g>
	<g>
		<path fill="none" stroke="#FFFFFF" stroke-width="2" d="M68.914,46.176C73.453,41.464,76.25,35.061,76.25,28
			s-2.797-13.463-7.336-18.176"/>
		<path fill="none" stroke="#FFFFFF" stroke-width="2" d="M30.958,10.045C26.543,14.736,23.833,21.05,23.833,28
			c0,6.95,2.71,13.264,7.125,17.955"/>
	</g>
</g>
<g id="Layer_2" display="none">
	<g id="Layer_2_1_" display="inline">
		
			<image overflow="visible" opacity="0.47" enable-background="new    " width="512" height="512" xlink:href="../../../../radio_tower.png"  transform="matrix(0.1602 0 0 0.1602 9.9995 7.999)">
		</image>
	</g>
</g>
<g id="Layer_3" display="none">
</g>
</svg>
