<?xml version="1.0" encoding="utf-8"?>
<!-- Generator: Adobe Illustrator 14.0.0, SVG Export Plug-In . SVG Version: 6.00 Build 43363)  -->
<!DOCTYPE svg PUBLIC "-//W3C//DTD SVG 1.1//EN" "http://www.w3.org/Graphics/SVG/1.1/DTD/svg11.dtd">
<svg version="1.1" id="Layer_1" xmlns="http://www.w3.org/2000/svg" xmlns:xlink="http://www.w3.org/1999/xlink" x="0px" y="0px"
	 width="413px" height="114px" viewBox="0 0 413 114" enable-background="new 0 0 413 114" xml:space="preserve">
<g>
	<g>
		<polygon fill="#020202" points="79.091,113.054 33.875,113.054 0,0.73 45.192,0.73 		"/>
		<polygon points="146.959,113.054 101.744,113.054 67.869,0.73 113.06,0.73 		"/>
	</g>
	<g>
		<path fill="#D02529" d="M175.445,18.858l5.473-18.128h-45.217l-0.017,0.058l5.455,18.074c5.445-1.597,11.202-2.463,17.16-2.463
			C164.252,16.399,170.005,17.264,175.445,18.858z"/>
		<path fill="#D02529" d="M153.008,58.189l5.284,17.507l5.285-17.513c-1.68-0.466-3.449-0.718-5.276-0.718
			C156.466,57.466,154.692,57.721,153.008,58.189z"/>
		<path fill="#D02529" d="M158.299,23.597c-5.235,0-10.294,0.757-15.08,2.158l2.754,9.123c3.921-1.107,8.053-1.705,12.326-1.705
			c4.269,0,8.397,0.597,12.313,1.7l2.754-9.122C168.583,24.353,163.53,23.597,158.299,23.597z"/>
		<path fill="#D02529" d="M148.053,41.772l2.874,9.521c2.345-0.665,4.817-1.023,7.374-1.023c2.55,0,5.017,0.357,7.357,1.019
			l2.874-9.521c-3.256-0.908-6.688-1.398-10.233-1.398C154.75,40.369,151.314,40.861,148.053,41.772z"/>
	</g>
</g>
<g>
	<g>
		<path d="M239.086,40.019l-9.721,30.241h-8.07l-5.551-17.524l-5.818,17.524h-8.047l-9.073-30.241h8.271l5.284,19.541l6.442-19.541
			h6.285l5.996,19.541l5.752-19.541H239.086z"/>
		<path d="M260.67,70.26h-17.318V40.019h17.318v6.558h-9.406v5.162h8.895v6.559h-8.895v5.406h9.406V70.26z"/>
		<path d="M286.775,60.255c0,5.117-2.26,8.451-6.777,10.003c-1.576,0.548-3.27,0.822-5.082,0.822c-3.805,0-7.334-1.144-10.588-3.434
			l3.387-6.338c2.383,2.144,4.713,3.214,6.992,3.214c1.025,0,1.898-0.238,2.611-0.717c0.836-0.536,1.254-1.298,1.254-2.283
			c0-0.896-0.463-1.642-1.385-2.237c-0.686-0.447-1.838-0.903-3.461-1.364c-1.965-0.576-3.203-0.974-3.709-1.197
			c-0.803-0.338-1.486-0.736-2.053-1.195c-1.621-1.328-2.436-3.333-2.436-6.019c0-2.803,0.84-5.127,2.521-6.971
			c1.961-2.168,4.578-3.253,7.846-3.253c3.285,0,6.504,0.819,9.654,2.459l-3.164,6.115c-1.732-1.344-3.473-2.017-5.232-2.017
			c-0.85,0-1.607,0.215-2.279,0.646c-0.76,0.489-1.141,1.141-1.141,1.956c0,0.802,0.498,1.491,1.498,2.069
			c0.445,0.267,1.785,0.725,4.02,1.378c2.797,0.813,4.791,1.967,5.982,3.459C286.262,56.626,286.775,58.259,286.775,60.255z"/>
		<path d="M309.807,46.576h-6.557V70.26h-7.914V46.576h-6.441v-6.558h20.912V46.576z"/>
		<path d="M332.123,70.26h-17.324V40.019h17.324v6.558h-9.408v5.162h8.896v6.559h-8.896v5.406h9.408V70.26z"/>
		<path d="M362.441,70.26h-9.832l-7.559-11.609V70.26h-7.914V40.019h12.309c3.596,0,6.256,1.071,7.979,3.212
			c1.398,1.729,2.098,3.759,2.098,6.092c0,2.673-0.803,4.809-2.408,6.403c-1.025,1.019-2.439,1.728-4.238,2.126L362.441,70.26z
			 M351.316,49.756c0-1.075-0.393-1.981-1.186-2.718c-0.746-0.691-1.947-1.038-3.602-1.038h-1.479v7.532h1.479
			c1.668,0,2.871-0.345,3.602-1.038C350.924,51.744,351.316,50.829,351.316,49.756z"/>
		<path d="M395.965,70.26h-7.912l-14.559-18.521V70.26h-7.912V40.019h7.912l14.559,18.499V40.019h7.912V70.26z"/>
	</g>
	<g>
		<path d="M252.004,82.67l-9.719,30.24h-8.07l-5.551-17.523l-5.818,17.523h-8.049l-9.071-30.24h8.271l5.283,19.541l6.443-19.541
			h6.285l5.996,19.541l5.752-19.541H252.004z"/>
		<path d="M264.184,112.91h-7.914V82.67h7.914V112.91z"/>
		<path d="M294.482,112.91h-9.83l-7.559-11.608v11.608h-7.912V82.67h12.303c3.598,0,6.258,1.071,7.98,3.212
			c1.398,1.729,2.098,3.758,2.098,6.093c0,2.674-0.803,4.809-2.406,6.404c-1.027,1.018-2.439,1.726-4.238,2.125L294.482,112.91z
			 M283.359,92.405c0-1.072-0.396-1.979-1.186-2.716c-0.746-0.69-1.949-1.038-3.602-1.038h-1.479v7.534h1.479
			c1.668,0,2.869-0.348,3.602-1.04C282.963,94.396,283.359,93.481,283.359,92.405z"/>
		<path d="M316.07,112.91h-17.324V82.67h17.324v6.557h-9.408v5.162h8.895v6.559h-8.895v5.405h9.408V112.91z"/>
		<path d="M338.496,112.91h-17.412V82.67h7.914v23.683h9.498V112.91z"/>
		<path d="M360.813,112.91h-17.32V82.67h17.32v6.557h-9.406v5.162h8.895v6.559h-8.895v5.405h9.406V112.91z"/>
		<path d="M386.916,102.906c0,5.116-2.258,8.451-6.777,10.004c-1.572,0.548-3.266,0.82-5.08,0.82c-3.807,0-7.336-1.145-10.59-3.434
			l3.389-6.336c2.383,2.142,4.713,3.212,6.992,3.212c1.027,0,1.898-0.237,2.613-0.716c0.836-0.537,1.254-1.298,1.254-2.282
			c0-0.896-0.465-1.643-1.389-2.238c-0.684-0.446-1.838-0.902-3.461-1.365c-1.965-0.576-3.199-0.974-3.705-1.196
			c-0.805-0.339-1.488-0.736-2.057-1.195c-1.621-1.325-2.432-3.333-2.432-6.018c0-2.802,0.84-5.126,2.518-6.97
			c1.961-2.17,4.578-3.253,7.848-3.253c3.283,0,6.504,0.818,9.652,2.458l-3.164,6.115c-1.729-1.344-3.473-2.017-5.23-2.017
			c-0.852,0-1.609,0.216-2.279,0.646c-0.762,0.487-1.139,1.141-1.139,1.956c0,0.802,0.496,1.491,1.494,2.068
			c0.447,0.268,1.787,0.726,4.02,1.379c2.799,0.813,4.793,1.966,5.984,3.46C386.404,99.276,386.916,100.91,386.916,102.906z"/>
		<path d="M413,102.906c0,5.116-2.258,8.451-6.775,10.004c-1.576,0.548-3.271,0.82-5.084,0.82c-3.803,0-7.334-1.145-10.588-3.434
			l3.387-6.336c2.385,2.142,4.713,3.212,6.992,3.212c1.029,0,1.9-0.237,2.613-0.716c0.834-0.537,1.252-1.298,1.252-2.282
			c0-0.896-0.461-1.643-1.385-2.238c-0.684-0.446-1.838-0.902-3.463-1.365c-1.965-0.576-3.199-0.974-3.705-1.196
			c-0.805-0.339-1.49-0.736-2.053-1.195c-1.625-1.325-2.436-3.333-2.436-6.018c0-2.802,0.84-5.126,2.518-6.97
			c1.963-2.17,4.582-3.253,7.85-3.253c3.283,0,6.5,0.818,9.65,2.458l-3.164,6.115c-1.729-1.344-3.473-2.017-5.23-2.017
			c-0.85,0-1.609,0.216-2.281,0.646c-0.756,0.487-1.137,1.141-1.137,1.956c0,0.802,0.498,1.491,1.494,2.068
			c0.449,0.268,1.787,0.726,4.021,1.379c2.799,0.813,4.793,1.966,5.984,3.46C412.488,99.276,413,100.91,413,102.906z"/>
	</g>
</g>
</svg>
